HIERARCHY
ROOT Hips
{
	OFFSET 0.000000 0.000000 0.000000
	CHANNELS 6 Xposition Yposition Zposition Zrotation Yrotation Xrotation 
	JOINT LHipJoint
	{
		OFFSET 0.000000 0.000000 0.000000
		CHANNELS 3 Zrotation Yrotation Xrotation
		JOINT LeftUpLeg
		{
			OFFSET 1.363060 -1.794630 0.839290
			CHANNELS 3 Zrotation Yrotation Xrotation
			JOINT LeftLeg
			{
				OFFSET 2.448110 -6.726130 0.000000
				CHANNELS 3 Zrotation Yrotation Xrotation
				JOINT LeftFoot
				{
					OFFSET 2.562200 -7.039590 0.000000
					CHANNELS 3 Zrotation Yrotation Xrotation
					JOINT LeftToeBase
					{
						OFFSET 0.157640 -0.433110 2.322550
						CHANNELS 3 Zrotation Yrotation Xrotation
						End Site
						{
							OFFSET 0.000000 0.000000 0.000000
						}
					}
				}
			}
		}
	}
	JOINT RHipJoint
	{
		OFFSET 0.000000 0.000000 0.000000
		CHANNELS 3 Zrotation Yrotation Xrotation
		JOINT RightUpLeg
		{
			OFFSET -1.305520 -1.794630 0.839290
			CHANNELS 3 Zrotation Yrotation Xrotation
			JOINT RightLeg
			{
				OFFSET -2.542530 -6.985550 0.000000
				CHANNELS 3 Zrotation Yrotation Xrotation
				JOINT RightFoot
				{
					OFFSET -2.568260 -7.056230 0.000000
					CHANNELS 3 Zrotation Yrotation Xrotation
					JOINT RightToeBase
					{
						OFFSET -0.164730 -0.452590 2.363150
						CHANNELS 3 Zrotation Yrotation Xrotation
						End Site
						{
							OFFSET 0.000000 0.000000 0.000000
						}
					}
				}
			}
		}
	}
}
MOTION
Frames: 19
Frame Time: 0.008333
-2.777792 16.744894 -3.067999 -1.920189 74.582642 15.802679 -9.666023 -1.332698 1.300063 -0.958097 0.384752 -41.717056 -1.826428 0.566462 14.098817 -0.266556 -3.918732 13.675852 -1.150100 0.000001 -39.621300 9.460677 -1.747580 -0.358031 5.889813 6.862335 0.314767 2.315179 -0.919348 18.633684 0.150506 4.162261 -9.093026 -0.021900 0.000001 -70.278100
-2.636027 16.771571 -3.058745 -0.898923 74.029813 16.806007 -9.620791 -1.273179 1.131783 -1.623718 0.883722 -41.558114 -1.898652 0.607012 14.978293 -0.270172 -3.851253 12.887846 -1.071500 -0.000000 -39.065100 9.662016 -1.821935 -0.390333 5.289377 6.624122 -0.575694 2.122198 -1.196783 20.737192 0.173717 4.039627 -7.876520 0.011900 0.000000 -71.823400
-2.497824 16.802459 -3.050725 -0.026273 73.420198 17.649345 -9.567300 -1.207090 0.982006 -2.207125 1.291607 -41.229201 -1.970729 0.622655 15.637422 -0.268240 -3.694235 11.926811 -0.952800 0.000000 -38.849600 9.878992 -1.882922 -0.452133 4.678224 6.233661 -1.602543 1.910620 -1.475127 22.979641 0.186452 3.891047 -6.545744 0.053101 0.000000 -72.783301
-2.362690 16.836410 -3.044789 0.649259 72.743855 18.289592 -9.511205 -1.135581 0.852203 -2.697674 1.630245 -40.747865 -2.037598 0.615851 16.080996 -0.256051 -3.436042 10.878421 -0.802900 0.000000 -38.902800 10.102424 -1.925732 -0.534427 4.082557 5.725004 -2.751331 1.681623 -1.744156 25.327021 0.172622 3.625837 -5.166647 0.094899 0.000000 -73.152800
-2.230106 16.872368 -3.041379 1.105944 71.996753 18.710326 -9.457691 -1.060293 0.741469 -3.094326 1.926761 -40.138669 -2.095236 0.590122 16.321952 -0.230271 -3.071236 9.826233 -0.632200 -0.000000 -39.139600 10.323616 -1.946540 -0.628558 3.527287 5.134209 -4.003648 1.438104 -1.995380 27.742641 0.117883 3.148218 -3.811927 0.120800 0.000000 -72.967300
-2.099579 16.909279 -3.040744 1.339228 71.180697 18.910999 -9.411655 -0.983045 0.647037 -3.402552 2.212174 -39.431656 -2.140734 0.550027 16.383377 -0.189597 -2.604254 8.842399 -0.451299 -0.000000 -39.464900 10.534459 -1.943154 -0.726659 3.037274 4.496231 -5.339075 1.184588 -2.222745 30.190497 0.010709 2.368003 -2.553114 0.106200 0.000000 -72.278200
-1.970687 16.946378 -3.042774 1.365976 70.303896 18.911082 -9.377050 -0.905575 0.564626 -3.633857 2.517490 -38.658287 -2.172831 0.500471 16.295244 -0.134922 -2.049683 7.981565 -0.269099 -0.000000 -39.791600 10.728726 -1.914973 -0.822558 2.632326 3.839026 -6.737198 0.926769 -2.422848 32.636053 -0.157045 1.215530 -1.453778 0.023900 0.000000 -71.145400
-1.843167 16.983012 -3.047059 1.220378 69.378984 18.746146 -9.356092 -0.829458 0.488903 -3.805350 2.869664 -37.849424 -2.192263 0.446030 16.090641 -0.069096 -1.431062 7.276870 -0.091900 -0.000000 -40.054700 10.902640 -1.862425 -0.912536 2.324154 3.181328 -8.179371 0.671697 -2.594898 35.051448 -0.389663 -0.342095 -0.575863 -0.146800 -0.000000 -69.489500
-1.716887 17.018791 -3.053070 0.943913 68.422400 18.456603 -9.349913 -0.755889 0.414701 -3.934681 3.289099 -37.031269 -2.201342 0.390629 15.803709 0.003498 -0.780337 6.738843 0.076000 -0.000000 -40.214400 11.053956 -1.787350 -0.994662 2.118825 2.532697 -9.646829 0.426549 -2.739781 37.404562 -0.687858 -2.299037 0.044258 -0.412600 0.000000 -67.336900
-1.591873 17.053478 -3.060102 0.582398 67.451630 18.087169 -9.357565 -0.685736 0.337063 -4.040680 3.787573 -36.225628 -2.203886 0.337090 15.465520 0.077842 -0.131984 6.356556 0.231600 0.000001 -40.260800 11.182397 -1.692242 -1.069471 2.013536 1.895427 -11.123456 0.199650 -2.860321 39.671759 -1.046197 -4.595164 0.366487 -0.758500 0.000000 -64.514901
-1.468310 17.087012 -3.067457 0.176483 66.483940 17.675007 -9.377312 -0.619298 0.252547 -4.138191 4.367049 -35.446558 -2.204128 0.287245 15.102726 0.148972 0.479575 6.102071 0.372000 0.000000 -40.203700 11.288346 -1.581136 -1.138621 2.001443 1.266913 -12.592400 -0.001947 -2.960245 41.822184 -1.452719 -7.127749 0.387706 -1.149100 0.000001 -61.084300
-1.346460 17.119468 -3.074496 -0.241104 65.533955 17.250834 -9.406128 -0.556476 0.159074 -4.238227 5.020078 -34.702795 -2.206135 0.241952 14.735948 0.212858 1.026301 5.936183 0.494300 -0.000001 -40.069500 11.373121 -1.458972 -1.205252 2.071409 0.642726 -14.040015 -0.172072 -3.044379 43.832147 -1.887200 -9.752448 0.111247 -1.531200 0.000000 -57.010900
-1.226640 17.150944 -3.080699 -0.647198 64.612944 16.834619 -9.440905 -0.496739 0.056333 -4.345925 5.731600 -33.996285 -2.212911 0.201448 14.379870 0.266864 1.489049 5.816696 0.595600 -0.000000 -39.891200 11.438310 -1.331678 -1.272556 2.211875 0.018960 -15.453320 -0.307700 -3.117438 45.676073 -2.323499 -12.308059 -0.419356 -1.850000 0.000000 -52.527399
-1.109154 17.181549 -3.085732 -1.029483 63.728134 16.437481 -9.478585 -0.439393 -0.054621 -4.461132 6.480997 -33.323858 -2.226084 0.165449 14.043014 0.309970 1.859615 5.703807 0.673800 -0.000000 -39.703300 11.485809 -1.204988 -1.343490 2.411710 -0.605725 -16.822761 -0.408730 -3.183405 47.333533 -2.732788 -14.636213 -1.133336 -2.064500 0.000000 -47.955000
-0.994309 17.211400 -3.089397 -1.383698 62.884018 16.061311 -9.517129 -0.383814 -0.171253 -4.578651 7.245946 -32.679155 -2.245702 0.133424 13.729094 0.342664 2.140468 5.566631 0.728800 -0.000000 -39.535000 11.517314 -1.084332 -1.419681 2.662870 -1.229901 -18.140104 -0.477547 -3.244939 48.790054 -3.087774 -16.601344 -1.935840 -2.160300 -0.000000 -43.696400
-0.882260 17.240449 -3.091614 -1.711226 62.080109 15.705311 -9.554748 -0.329583 -0.291262 -4.691415 8.005059 -32.054077 -2.270604 0.104825 13.437452 0.366696 2.343736 5.386647 0.762500 -0.000000 -39.409701 11.534843 -0.972982 -1.502580 2.958696 -1.850032 -19.401913 -0.517722 -3.303434 50.039983 -3.366180 -18.101908 -2.731020 -2.149599 0.000000 -40.081300
-0.773073 17.268649 -3.092443 -2.016834 61.314069 15.364697 -9.590865 -0.276360 -0.412274 -4.791475 8.741686 -31.439407 -2.298751 0.079189 13.164545 0.384459 2.487186 5.158957 0.778900 0.000000 -39.340500 11.540099 -0.873280 -1.592169 3.295091 -2.461168 -20.606289 -0.532926 -3.359225 51.083079 -3.552407 -19.073643 -3.432260 -2.064300 0.000001 -37.361401
-0.666737 17.295799 -3.091962 -2.306820 60.582213 15.032916 -9.626075 -0.223856 -0.531732 -4.871432 9.445563 -30.828607 -2.327742 0.056251 12.906863 0.398468 2.590532 4.889975 0.782601 -0.000000 -39.328900 11.534364 -0.786977 -1.686255 3.669328 -3.056673 -21.753462 -0.526431 -3.411890 51.923046 -3.638601 -19.491457 -3.973244 -1.942800 0.000000 -35.680601
-0.563062 17.321731 -3.090261 -2.585937 59.876088 14.707823 -9.660395 -0.172076 -0.649645 -4.927565 10.113524 -30.217170 -2.355502 0.036164 12.659387 0.411156 2.674043 4.596011 0.779200 -0.000000 -39.369700 11.519542 -0.713221 -1.783111 4.076201 -3.628005 -22.846178 -0.501092 -3.460699 52.564756 -3.624042 -19.364062 -4.311097 -1.817900 0.000000 -35.096000
